<svg width="1080" height="1080" viewBox="0 0 1080 1080" fill="none" xmlns="http://www.w3.org/2000/svg">
<path opacity="0.5" d="M859.69 436C856.878 429.866 852.55 424.55 847.114 420.552C841.678 416.554 835.313 414.007 828.62 413.15C809.72 410.94 792.33 422.43 774.38 428.74C731.38 443.86 679.24 426.23 654.26 388.15C641.16 368.15 633.96 342.55 613.43 330.34C595.43 319.62 572.7 322.79 551.97 326.09C526.08 330.22 499.91 334.04 473.73 332.52C447.55 331 421.08 323.78 400.29 307.81C389.08 299.19 379.17 287.91 365.59 284C350.51 279.67 334.04 285.7 321.8 295.51C289.8 321.2 283.45 371.05 302.16 407.6C320.87 444.15 360.01 467.4 400.51 474.21C419.62 477.43 439.16 477.36 458.37 475.03C486.47 471.61 513.49 463.88 541.73 460.83C577.73 456.94 614.29 454.42 650.2 460.99C704.32 470.9 755.73 500.78 810.53 495.91C827.74 494.38 845.9 488.48 855.89 474.38C859.731 468.832 862.095 462.397 862.76 455.682C863.424 448.967 862.368 442.194 859.69 436ZM360 364.12C358.4 364.03 354.91 364.5 353.68 365.35C351.17 367.08 349.91 369.35 350 373.08C350.08 376.13 350.94 381.9 348.68 381.9C345.82 381.2 346.35 377.01 345.76 374.12C345.17 371.23 344.35 368.87 341.97 367.12C337.79 364.12 328.89 369.25 328.38 364.12C328.03 360.63 333.31 362.12 333.5 362.12C337.17 362.02 337.97 362.3 340.76 360.98C344.11 359.39 344.37 356.8 344.25 353.15C344.2 351.84 344.25 349.35 344.06 348.06C344.002 347.38 344.192 346.702 344.594 346.15C344.996 345.599 345.585 345.212 346.25 345.06C347.9 344.84 348.4 347.06 348.49 348.7C348.61 350.77 348.69 352.7 348.9 354.8C349.11 356.9 350.08 359.06 351.99 359.8C354.09 360.68 356.99 359.8 358.99 360.06C361.24 360.38 363.93 359.89 364.25 362.13C364.52 364.12 361.94 364.23 360 364.12ZM826 469.91C824.724 469.912 823.476 469.535 822.414 468.828C821.352 468.12 820.524 467.114 820.034 465.935C819.544 464.757 819.415 463.46 819.663 462.208C819.911 460.956 820.524 459.806 821.426 458.903C822.327 458 823.477 457.384 824.728 457.135C825.979 456.885 827.277 457.012 828.456 457.5C829.635 457.988 830.643 458.815 831.352 459.876C832.062 460.936 832.44 462.184 832.44 463.46C832.44 465.169 831.762 466.808 830.554 468.017C829.347 469.227 827.709 469.907 826 469.91Z" fill="#4D5DE7"/>
<path opacity="0.5" d="M858.74 583.49C827.55 523.49 755.68 486.24 689.36 499.4C655.19 506.19 624.24 524.78 590.08 531.66C534.62 542.84 478.39 522.22 424.45 505.18C370.51 488.14 310.06 474.83 259 499.13C214.54 520.27 185.91 568.23 182.09 617.32C178.27 666.41 197.17 715.62 227.87 754.11C248.36 779.81 273.87 801.11 301.59 818.63C323.98 832.79 344.09 844.94 370.33 849.09C403.783 854.37 437.427 858.117 471.26 860.33C538.174 864.722 605.348 863.048 671.96 855.33C702.36 851.8 732.96 846.91 761.19 835.11C792.121 822.119 819.134 801.295 839.57 774.69C880.65 721 889.94 643.47 858.74 583.49ZM259.91 725.62C258.31 725.53 254.82 726 253.59 726.85C251.09 728.59 249.82 730.91 249.92 734.58C249.99 737.58 250.86 743.41 248.6 743.41C245.73 742.7 246.26 738.51 245.67 735.62C245.08 732.73 244.27 730.37 241.88 728.62C237.71 725.62 228.81 730.75 228.29 725.62C227.94 722.13 233.23 723.62 233.41 723.62C237.09 723.52 237.88 723.8 240.67 722.48C244.03 720.89 244.29 718.3 244.16 714.65C244.16 713.35 244.16 710.86 243.97 709.56C243.914 708.88 244.104 708.203 244.507 707.652C244.909 707.101 245.496 706.714 246.16 706.56C247.81 706.35 248.32 708.56 248.41 710.2C248.52 712.27 248.6 714.2 248.81 716.3C249.02 718.4 249.99 720.56 251.91 721.36C254.01 722.23 256.91 721.36 258.91 721.61C261.15 721.93 263.84 721.44 264.16 723.69C264.4 725.62 261.82 725.74 259.91 725.62ZM281.5 751.92C280.224 751.92 278.976 751.541 277.915 750.832C276.855 750.123 276.028 749.115 275.54 747.936C275.052 746.757 274.925 745.459 275.175 744.208C275.424 742.957 276.04 741.807 276.943 740.906C277.846 740.004 278.996 739.39 280.248 739.143C281.5 738.895 282.797 739.024 283.975 739.514C285.154 740.004 286.16 740.832 286.868 741.894C287.575 742.956 287.952 744.204 287.95 745.48C287.95 746.327 287.783 747.165 287.459 747.947C287.135 748.729 286.659 749.439 286.06 750.037C285.461 750.635 284.75 751.11 283.968 751.433C283.185 751.756 282.347 751.921 281.5 751.92V751.92ZM340.93 657.68C335.82 667.68 326.21 674.58 316.07 679.31C298.13 687.68 269.22 693.31 250.39 684.31C231.87 675.43 219.54 650.65 217.98 631.12C216.14 607.9 227.55 583.86 247.24 571.41C266.93 558.96 294.11 559.12 313.12 572.57C327.6 582.82 336.54 599.34 341.61 616.34C345.65 629.89 347.38 645.12 340.93 657.68ZM378 560.88C376.39 560.78 372.9 561.25 371.68 562.1C369.17 563.84 367.9 566.16 368 569.84C368.08 572.84 368.94 578.66 366.68 578.66C363.81 577.96 364.35 573.77 363.75 570.88C363.15 567.99 362.35 565.62 359.97 563.88C355.79 560.88 346.89 566.01 346.37 560.88C346.03 557.39 351.31 558.88 351.49 558.88C355.17 558.78 355.97 559.07 358.76 557.74C362.11 556.16 362.37 553.57 362.25 549.92C362.2 548.61 362.2 546.12 362.06 544.82C361.997 544.141 362.184 543.461 362.585 542.909C362.986 542.357 363.574 541.97 364.24 541.82C365.9 541.6 366.4 543.82 366.49 545.45C366.6 547.53 366.69 549.45 366.89 551.56C367.09 553.67 368.07 555.81 369.99 556.56C372.09 557.43 374.99 556.56 376.99 556.82C379.24 557.14 381.93 556.64 382.24 558.89C382.46 560.88 379.88 561 378 560.88ZM411.82 539C410.544 539 409.297 538.622 408.237 537.913C407.176 537.204 406.349 536.197 405.861 535.018C405.373 533.84 405.245 532.543 405.494 531.292C405.743 530.04 406.357 528.891 407.259 527.989C408.161 527.087 409.31 526.473 410.562 526.224C411.813 525.975 413.11 526.103 414.288 526.591C415.467 527.079 416.474 527.906 417.183 528.967C417.892 530.027 418.27 531.274 418.27 532.55C418.271 533.397 418.105 534.237 417.782 535.02C417.458 535.803 416.983 536.515 416.384 537.114C415.785 537.713 415.073 538.188 414.29 538.512C413.507 538.835 412.667 539.001 411.82 539V539ZM781.42 593.24C781.958 593.24 782.485 593.4 782.932 593.699C783.38 593.998 783.728 594.424 783.934 594.921C784.139 595.419 784.193 595.966 784.087 596.494C783.981 597.022 783.721 597.507 783.34 597.887C782.958 598.267 782.473 598.525 781.944 598.629C781.416 598.733 780.869 598.677 780.372 598.47C779.875 598.263 779.451 597.912 779.153 597.464C778.856 597.015 778.698 596.488 778.7 595.95C778.693 595.589 778.759 595.23 778.893 594.895C779.026 594.56 779.226 594.255 779.479 593.998C779.733 593.741 780.035 593.537 780.368 593.398C780.701 593.259 781.059 593.189 781.42 593.19V593.24ZM799.42 755.77C796.61 762.77 789.98 767.83 782.73 769.95C775.48 772.07 767.67 771.56 760.3 769.85C733.93 763.73 712.01 741.47 706.3 715.01C703.38 701.48 704.61 686.71 711.73 674.85C718.85 662.99 732.37 654.65 746.17 655.66C759.97 656.67 772.8 668.26 773.4 682.08C773.84 692.38 769.15 702.99 776.4 712.08C781.99 719.14 790.48 722.91 795.65 730.87C800.33 738.14 802.62 747.61 799.39 755.72L799.42 755.77ZM835.24 672.88C833.63 672.79 830.14 673.26 828.92 674.11C826.41 675.85 825.15 678.17 825.24 681.85C825.32 684.9 826.18 690.67 823.92 690.67C821.05 689.96 821.59 685.77 821 682.88C820.41 679.99 819.59 677.63 817.21 675.88C813.03 672.83 804.13 678 803.62 672.88C803.27 669.39 808.55 670.88 808.73 670.88C812.41 670.78 813.21 671.06 816 669.74C819.35 668.15 819.61 665.57 819.49 661.91C819.44 660.61 819.49 658.12 819.3 656.82C819.241 656.141 819.43 655.464 819.83 654.913C820.231 654.362 820.816 653.974 821.48 653.82C823.14 653.61 823.64 655.82 823.73 657.46C823.84 659.53 823.93 661.46 824.13 663.56C824.33 665.66 825.31 667.82 827.23 668.62C829.33 669.49 832.23 668.62 834.23 668.87C836.48 669.19 839.17 668.7 839.49 670.95C839.69 672.83 837.11 673 835.21 672.83L835.24 672.88Z" fill="#4D5DE7"/>
<path d="M540.57 520.82C517.5 517.6 503.52 495.77 508.9 471.46C510.12 465.95 512.25 460.67 512.9 455.02C514.61 439.9 508.69 432.02 493.77 429.57C479.64 427.25 465.37 426.39 451.09 425.62C440.258 425.182 429.621 422.592 419.8 418C397.86 407.51 394.7 384.47 413 368.24C422.176 360.157 433.61 355.082 445.76 353.7C452.7 352.8 459.53 351.55 466.03 348.81C483.36 341.48 490.25 328.14 485.93 309.87C481.61 291.6 477.04 273.35 477.14 254.37C477.14 247.69 477.81 241.09 480.61 234.89C482.89 229.89 486.28 225.58 491.56 223.89C517.39 215.47 538.74 218.62 556.72 239.44C558.779 242.05 560.552 244.872 562.01 247.86C569.29 261.28 584.37 262.02 592.91 249.42C597.293 242.921 602.779 237.238 609.12 232.63C630.86 216.77 656.65 223.19 668.36 247.53C675.49 262.34 675.11 277.85 671.09 293.33C667.55 306.92 671.22 313.33 685.09 315.15C695.14 316.49 705.27 317.15 715.39 317.86C723.552 318.344 731.472 320.816 738.46 325.06C747.18 330.36 749.23 337.33 745.46 346.83C743.38 352.07 741.2 357.3 739.58 362.69C735.68 375.63 738.32 383.35 749.2 391.37C756.03 396.37 763.2 401.04 769.9 406.16C787.2 419.3 797.59 436.16 798.69 458.45C799.48 474.69 798.59 490.65 795.01 506.5C789.23 532.11 773.22 548.87 750.3 560.57C716.68 577.75 683.41 575.42 649.85 560.9C639.93 556.61 630.99 551.11 624.23 542.5C622.41 539.67 625.04 537.5 625.35 535.03C625.6 532.97 627.93 530.65 624.7 528.95C623.937 528.378 623.373 527.58 623.09 526.67C616.25 522.08 617.22 515.04 617.44 508.31C617.5 506.31 618.36 504.43 618.7 502.46C619.32 498.8 617.99 496.46 614.36 495.17C605.48 491.96 604.28 489.65 606.03 480.17C606.64 476.86 607.56 473.45 603.81 471.29C600.27 469.29 597.07 470.41 594.07 472.61C592.528 473.879 590.9 475.042 589.2 476.09C583.73 479.03 579.05 478.29 574.77 473.77C573.97 472.92 573.27 471.98 572.48 471.12C568.27 466.57 565.55 465.63 560.15 468.37C555.79 470.58 552.31 469.87 549.41 466.59C544.41 460.9 537.76 462.88 532.8 467.59C524.6 475.41 524.42 490.37 536.95 495.13C541.38 496.81 543.14 499.8 542.16 504.51C541.29 508.7 542.94 512.75 543.16 516.89C543.25 518.77 544 521.15 540.57 520.82Z" fill="#4E356F"/>
<path d="M327.51 837.45C322.99 832.83 321.51 826.95 320.51 820.83C318.779 810.154 318.921 799.257 320.93 788.63C323.28 776.25 330.7 767.42 341.61 761.45C348.976 757.243 357.121 754.579 365.55 753.62C368.75 758.13 368.82 762.98 367.13 768.03C363.58 769.45 359.71 769.6 356.13 770.84C353.74 771.557 351.423 772.498 349.21 773.65C343.97 776.65 343.66 780.57 348.42 784.16C351.199 786.292 354.293 787.979 357.59 789.16C375.494 795.447 393.859 800.332 412.52 803.77C444.437 809.639 476.642 813.815 509 816.28C527.18 817.71 545.55 816.95 563.86 816.12C582.17 815.29 600.64 813.12 619.03 811.68C639.95 810.02 660.84 807.99 680.61 800.13C682.951 799.254 685.193 798.134 687.3 796.79C696.19 790.91 695.93 781.68 686.76 776.06C683.51 774.06 679.65 773.14 676.91 770.28C675.98 768.54 676.33 766.73 676.63 764.94C678.47 754.2 680.09 743.42 681.92 732.67C682.28 730.54 682.49 728.29 685.29 727.86C688.56 731.64 688.29 736.58 689.15 740.99C691.79 754.11 698.24 764.99 707.15 774.64C714.95 783.1 721.36 792.52 725.15 803.54C726.43 807.31 727.75 811.07 727.15 815.16C721.95 818.16 717.74 822.54 712.76 825.87C683.76 845.31 652.01 858.7 618.54 868.25C599.8 873.6 580.85 878.07 561.35 879.25C538.141 880.813 514.86 880.987 491.63 879.77C477.21 878.91 462.74 878.87 448.45 876.48C412.22 870.42 377.03 860.78 343.36 845.9C337.85 843.45 332.89 840.07 327.51 837.45Z" fill="#21E676"/>
<path d="M481.52 546.53C489.726 544.442 498.257 543.946 506.65 545.07C508.699 545.377 510.79 545.234 512.778 544.65C514.766 544.066 516.602 543.056 518.16 541.69C523.24 537.49 529.16 537.43 534.9 540.69C536.76 541.75 538.45 543.12 540.22 544.35C542.17 545.03 543.22 546.82 544.75 548.02C547.081 549.954 549.775 551.404 552.673 552.285C555.572 553.166 558.617 553.46 561.63 553.15C574.07 553.86 578.97 562.06 581.23 572.89C579.23 585.3 575.59 597.39 573.48 609.81C570.99 624.49 568.83 639.19 567.61 654.06C566.715 663.281 567.021 672.578 568.52 681.72C570.66 693.82 576.02 703.94 586.6 710.79C587.454 711.307 588.146 712.051 588.6 712.94C588.73 715.65 586.44 716.05 584.71 716.74C567.58 723.62 550.19 729.64 531.71 731.93C531.195 732.012 530.666 731.951 530.183 731.754C529.7 731.556 529.28 731.23 528.97 730.81C527.86 727.68 527.68 724.36 527.08 721.12C525.948 714.414 523.417 708.022 519.65 702.36C516.87 698.36 515.95 698.14 512.47 701.54C508.57 705.35 504.76 709.26 500.88 713.09C499.48 714.47 498.26 716.09 496.24 716.71C489.96 715.83 484.49 712.58 478.54 710.71C475.87 709.87 473.22 708.96 470.54 708.15C466.591 706.678 462.561 705.433 458.47 704.42C456.839 703.848 455.168 703.4 453.47 703.08C452.009 702.694 450.521 702.414 449.02 702.24C441.85 700.4 434.32 700.11 427.41 697.24C417.66 688.75 413.41 677.33 410.56 665.24C410.25 663.95 410.14 662.62 409.74 661.35C409.457 660.108 409.283 658.843 409.22 657.57C406.79 640.4 408.52 624.21 418.9 609.47C429.14 595 439.7 581 452.2 568.43C457.12 563.49 461.33 557.9 466.97 553.63C471.41 550.28 475.89 547.31 481.52 546.53Z" fill="#7694FF"/>
<path d="M327.51 837.45C329.31 835.7 330.67 837.56 331.86 838.25C348.66 847.95 366.86 854.15 385.21 860.05C408.846 867.638 433.133 873.028 457.76 876.15C467.3 877.37 476.88 877.64 486.46 878.21C500.57 879.05 514.67 878.91 528.78 879.1C574.91 879.72 618.78 869.7 661.12 851.8C679.37 844.08 696.94 835.17 713.19 823.8C716.546 821.379 719.777 818.789 722.87 816.04C724.24 814.85 725.38 813.84 727.14 815.18C729.61 824.4 727.14 832.98 722.63 840.76C715.63 852.76 704.57 860.76 693.15 868.19C687.793 872.262 681.732 875.312 675.27 877.19C653.81 885.28 631.96 891.86 609.21 895.46C579.624 900 549.637 901.368 519.76 899.54C479.84 897.3 440.58 890.83 401.82 881.17C396.35 879.81 391.01 877.94 385.6 876.36C384.05 875.91 382.54 874.86 380.82 875.82C374.66 873.46 368.21 871.82 362.56 868.23C354.77 863.04 346.11 859.13 339.19 852.62C334.49 848.14 330 843.6 327.51 837.45Z" fill="#2FA760"/>
<path d="M561.82 554.4C552.6 555.4 545.33 552.25 540.22 544.4C542.437 542.716 544.542 540.889 546.52 538.93C549.45 535.66 550.52 532.03 546.81 528.47C544.43 526.16 542.32 519.06 542.07 517.39C541.33 512.39 539.97 507.34 541.28 502.12C541.94 499.52 540.42 497.65 537.85 496.85C530.57 494.59 526.26 489.73 525.7 482.14C525.12 474.33 528.8 468.36 534.98 463.91C540.2 460.15 544.84 460.53 549.64 465.08C552.87 468.15 555.7 469.83 560.31 466.83C564.31 464.22 568.92 464.56 572.31 468.95C573.02 469.87 573.91 470.64 574.67 471.52C580.33 478.07 585.11 478.52 591.67 472.87C594.78 470.19 597.95 467.93 602.39 469.02C606.83 470.11 608.75 472.72 607.99 477.37C607.69 479.16 607.24 480.94 606.87 482.72C605.57 488.89 607.59 492.08 613.79 493.65C619.99 495.22 621.79 497.65 619.79 503.65C617.53 510.19 619.4 516.37 619.85 522.71C619.97 524.45 620.68 523.4 621.31 523.19C624.55 522.19 624.48 524.32 624.43 526.45C623.58 530.75 621.21 534.32 619.1 537.57C621.66 535.2 621.88 530.67 625.55 528.57C627.41 527.52 628.91 527.16 628.06 530.18C626.9 534.29 625.61 538.36 624.38 542.45C619.85 547.11 617.73 552.92 616.5 559.14C616.59 559.894 616.59 560.656 616.5 561.41C615.15 564.27 616 568.22 612.31 569.93C604.31 564.45 595.85 562.05 586.31 565.24C585.981 565.283 585.647 565.258 585.328 565.165C585.01 565.072 584.714 564.914 584.46 564.7C583.09 561.25 584.67 558.1 585.46 554.87C586.25 551.64 588.06 549.53 590.81 547.62C595.067 544.495 598.731 540.634 601.63 536.22C603.25 533.89 605.46 532.14 607.37 530.1C607.62 529.89 607.83 529.63 608.09 529.44C609.67 528.23 610.85 525.09 613 526.37C615.33 527.76 613.35 530.43 612.87 532.53C612.54 533.27 612.35 534.07 611.87 534.96C612.64 533.96 612.95 532.88 613.67 532.07C614.39 531.26 614.04 530.18 613.94 529.21C613.84 528.24 614.43 526.75 613.02 526.15C611.61 525.55 610.88 526.59 610.02 527.38C609.16 528.17 608.39 529.01 607.55 529.8C602.3 534.38 598.85 540.56 593.68 545.21C591.46 547.21 589.29 549.21 586.15 549.62C580.72 549.89 575.32 549.9 570.07 548.17C567.36 547.27 565.22 547.85 564.07 550.66C563.839 552.153 563.031 553.496 561.82 554.4V554.4Z" fill="#C08080"/>
<path d="M801 566.72C801.24 548.98 812.53 534.16 829.59 529.59C845.3 525.38 861.04 521.26 876.77 517.13C887.37 514.36 892.31 517.13 895.31 527.7C896.511 531.496 897.46 535.368 898.15 539.29C899.4 547.79 896.45 552.09 888.15 554.29C873.88 558.12 859.62 561.99 845.28 565.55C841.13 566.55 840.14 567.99 841.41 572.3C845.41 585.99 848.97 599.83 852.66 613.62C855.33 623.62 852.11 629.24 842.22 631.9C838.38 632.9 834.57 634.13 830.69 635.01C823.74 636.58 817.94 633.39 816.01 626.48C811.12 608.9 806.47 591.25 801.82 573.59C801.375 571.324 801.101 569.027 801 566.72Z" fill="#21E676"/>
<path d="M615.66 560.51L616.4 559.18C626.73 561.48 637.09 563.6 647.12 567.12C665.62 573.62 676.287 586.523 679.12 605.83C680.49 614.99 681.38 624.22 682.49 633.42C683.14 640.52 682.49 647.63 682.81 654.73C682.93 657.73 681.4 658.52 678.89 658.46C676.899 658.38 674.926 658.044 673.02 657.46C663.45 654.74 653.51 653.86 643.84 651.63C643.264 651.574 642.708 651.384 642.217 651.077C641.726 650.77 641.313 650.354 641.01 649.86C637.55 623.62 632.57 597.74 622.76 572.99C621 568.48 617.63 564.91 615.66 560.51Z" fill="#21E676"/>
<path d="M385.55 711.4C386.09 715.87 384.66 720.28 385.13 724.74C384.28 737.9 386.76 750.11 395.2 760.74C397.341 763.265 399.786 765.515 402.48 767.44C403.74 768.44 405.95 769.13 405.48 770.98C405.01 772.83 402.77 772.43 401.17 772.7C391.91 773.7 382.64 774.59 373.33 774.78C368.05 774.89 366.22 772.9 366.86 768.26C367.45 763.26 366.26 758.5 365.57 753.66C366.36 746.66 364.22 739.87 363.44 732.98C362.03 720.52 360.33 708.1 358.75 695.66C358.14 690.91 357.69 686.14 356.9 681.43C355.74 674.53 357.02 671.95 363.51 669.57C371.92 666.5 380.34 663.47 389.03 661.23C395.72 657.54 402.62 654.99 410.41 657.34C410.53 658.64 410.65 659.94 410.76 661.24C411.94 672.43 413.34 683.59 415.27 694.68C413.59 697.35 410.63 697.22 408.15 697.37C399.34 697.92 391.91 700.72 387.09 708.61C386.893 708.882 386.642 709.111 386.353 709.283C386.064 709.455 385.743 709.566 385.41 709.61" fill="#F9F9FB"/>
<path d="M410.39 657.3C403.05 657.44 396.08 659.61 389.01 661.19C390.48 635.36 395.24 610.19 405.01 586.19C406.91 581.579 409.251 577.162 412 573C421.73 558.16 435 548.81 453.21 547.81C462.65 547.3 472.06 546.07 481.54 546.54C466.2 552.54 456.69 565.54 445.95 576.92C437.41 585.98 430.37 596.3 422.74 606.13C410.81 621.48 407.9 638.66 410.39 657.3Z" fill="#21E676"/>
<path d="M643.38 650.38C651.6 651.85 659.82 653.29 668.03 654.8C670.63 655.27 673.19 655.91 675.76 656.49C683.87 658.33 682.08 657.94 684.14 658.39C685.14 658.61 686.21 659.06 688.08 659.59C695 661.59 696 663.71 694.14 670.71C690.89 682.97 689.76 695.64 687.36 708.07C686.36 713.07 685.81 718.15 684.8 723.14C684.46 724.86 684.22 726.37 685.25 727.86C681.85 732.54 682.59 738.26 681.51 743.49C679.7 752.26 678.51 761.16 677.03 770C675.59 771.83 673.66 771.48 671.75 771.21C668.56 769.21 666.52 766.29 664.83 763.05C665.09 760.81 666.96 759.82 668.38 758.46C679.7 747.58 682.46 728.34 674.47 715.86C668.96 707.24 660.54 703.47 650.89 701.68C647.89 701.13 644.46 701.48 642.45 698.33C641.22 693.99 642.79 689.73 642.89 685.43C643.12 676.1 642.12 666.82 641.89 657.52C641.78 655.06 641.54 652.47 643.38 650.38Z" fill="#F9F9FB"/>
<path d="M573.53 224.87C567.938 225.07 562.428 223.484 557.8 220.34C549.28 214.56 540.73 208.82 532.27 202.96C526.27 198.84 525.62 194.63 529.66 188.56C530.58 187.18 531.49 185.79 532.47 184.44C536.41 179.03 540.61 178.19 546.14 181.92C553.59 186.92 561.02 191.92 568.29 197.2C571.15 199.26 572.64 198.89 574.53 195.95C579.38 188.41 584.53 181.06 589.63 173.69C593.4 168.25 597.08 167.44 602.83 170.6C603.83 171.16 604.83 171.8 605.83 172.45C614.95 178.52 615.5 181.18 609.42 190.08C603.98 198.08 598.42 205.91 593.08 213.91C588.07 221.34 580.82 224.23 573.53 224.87Z" fill="#578CDB"/>
<path d="M309 621C308.708 625.013 307.468 628.9 305.38 632.34C300.08 640.77 294.87 649.27 289.58 657.7C285.87 663.6 282.33 664.42 276.26 660.88C274.973 660.133 273.697 659.357 272.43 658.55C265.95 654.46 265.15 651.14 269.19 644.55C273.6 637.33 277.92 630.04 282.6 622.99C284.38 620.31 283.89 619.21 281.33 617.7C274.04 613.39 266.89 608.84 259.7 604.37C253.25 600.37 252.45 596.99 256.41 590.37C257.09 589.23 257.8 588.11 258.52 586.99C262.69 580.54 265.94 579.73 272.57 583.78C281.237 589.073 289.827 594.437 298.34 599.87C305.69 604.57 308.88 611.57 309 621Z" fill="#4D5DE7"/>
<path d="M826 406.28C825.29 411.51 826 418.17 820.86 423.36C815.18 429.15 808.64 429.17 803.14 423.16C799.81 419.52 798.08 414.99 796.36 410.51C793.53 403.14 789.5 397.29 781.84 393.79C775.47 390.809 769.964 386.257 765.84 380.56C760.7 373.56 762.58 367.9 770.77 365.26C796.22 357.07 825.92 378.54 826 406.28Z" fill="#4E356F"/>
<path d="M725.75 269.93C725.75 290.01 713.75 301.46 696.34 298.93C686.4 297.49 683.62 291.86 688.69 283.24C691.516 278.328 692.601 272.606 691.77 267C690.93 259.94 692.25 253.47 697.89 248.43C704.78 242.28 714.66 243.11 720.21 250.49C724.71 256.45 726.06 263.35 725.75 269.93Z" fill="#4E356F"/>
<path d="M477 438.17C483.9 438.6 490.15 442.17 494.93 448.06C499.06 453.12 498.31 459.67 492.3 463.12C483.86 467.97 476.66 474.22 469.07 480.12C463.16 484.69 456.07 484.46 449.94 480.46C445.43 477.51 443.25 470.68 444.63 463.87C447.29 450.93 463 438.08 477 438.17Z" fill="#4E356F"/>
<path d="M445.7 334.88C442.622 335.039 439.56 334.347 436.85 332.88C434.919 331.891 433.282 330.413 432.102 328.593C430.923 326.772 430.242 324.674 430.129 322.508C430.015 320.341 430.473 318.183 431.456 316.25C432.439 314.316 433.913 312.675 435.73 311.49C442.13 307.39 449.01 307.3 455.66 310.8C460.57 313.38 463.34 317.56 462.66 323.46C462.04 329.18 458.41 332.17 453.34 333.96C450.867 334.711 448.281 335.022 445.7 334.88V334.88Z" fill="#4E356F"/>
<path d="M362.56 868.16C369 869.83 375.47 871.44 380.81 875.75C376.64 886.52 372.43 897.28 368.31 908.08C367.41 910.44 366.01 911.75 363.46 911.08C360.91 910.41 360.88 908.45 360.97 906.32C361.53 893.593 362.06 880.873 362.56 868.16Z" fill="#4E356F"/>
<path d="M675.27 877.12C680.908 873.519 686.899 870.504 693.15 868.12C693.55 879.89 693.97 891.65 694.32 903.42C694.4 906.1 695.48 909.53 691.32 910.22C687.16 910.91 687.15 907.22 686.16 904.8C682.52 895.62 678.91 886.37 675.27 877.12Z" fill="#4E356F"/>
<path d="M553.56 339.79C553.83 342.85 552.19 343.15 549.86 342.26C541.123 339.068 531.882 337.476 522.58 337.56C520.511 337.549 518.475 337.039 516.644 336.074C514.814 335.108 513.243 333.716 512.066 332.014C510.888 330.312 510.138 328.352 509.88 326.299C509.621 324.246 509.861 322.161 510.58 320.22C512.02 316.41 511.75 313.22 509.4 309.94C507.066 306.667 505.51 302.905 504.85 298.94C504.08 294.36 503.54 289.29 508.06 286.18C512.58 283.07 517.43 284.57 521.72 287.02C528.02 290.6 527.92 290.76 533.02 285.02C535.47 282.27 539.39 282.28 542.26 285.15C543.145 285.912 543.794 286.911 544.13 288.03C545.18 294.22 547.76 296.57 554.39 294.03C557.77 292.75 562.05 297.57 562.45 301.75C562.84 305.75 561.74 309.67 561.52 313.63C561.15 320.25 560.06 326.84 560.52 333.5C560.607 336.024 559.811 338.499 558.27 340.5C555.35 342.1 554.87 339.5 554.27 337.9C549.489 324.836 540.515 313.724 528.75 306.3C528.13 306.04 527.55 305.68 526.75 305.38C527.426 305.815 528.127 306.209 528.85 306.56C539.185 313.019 547.316 322.461 552.17 333.64C553.14 335.61 554.49 337.48 553.56 339.79Z" fill="#21E676"/>
<path d="M751.26 511.52C742.26 511.52 733.26 511.52 724.32 511.52C721.656 511.603 718.996 511.241 716.45 510.45C714.16 509.67 712.88 508.05 713.26 505.5C713.64 502.95 715.49 502.2 717.65 502.58C721.4 503.23 722.72 502.28 721.89 498.23C721.739 497.651 721.728 497.044 721.858 496.46C721.989 495.875 722.257 495.331 722.64 494.871C723.024 494.411 723.512 494.05 724.063 493.817C724.614 493.583 725.213 493.485 725.81 493.53C729.81 493.53 730.6 491.46 730.81 487.88C731.55 477.12 737.81 471.34 747.27 472.17C753.39 472.71 757.34 476.17 758.34 482.39C758.99 486.39 760.23 488.56 765.05 488.15C772.46 487.53 778.43 493.24 779 500.78C779.17 503.07 780.14 503.57 782.16 503.41C784.67 503.22 787.72 502.97 787.82 506.49C787.93 510.32 784.89 511.42 781.65 511.49C771.51 511.57 761.36 511.49 751.22 511.49L751.26 511.52Z" fill="#F9F9FB"/>
<path d="M704.47 528.47C704.079 534.986 701.75 541.237 697.78 546.42C695.13 550.01 691.86 551.98 687.71 548.42C686.03 546.97 684.8 547.42 683.48 548.92C682.202 550.439 680.775 551.826 679.22 553.06C677.22 554.51 675.07 555.98 672.4 554.44C669.89 552.99 668.32 550.77 668.54 547.93C668.88 543.6 668.1 541.79 663.07 543.13C658.04 544.47 651.25 539.8 649.68 534.87C648.11 529.94 650.16 525.43 655.23 524.55C661.46 523.47 664.92 520.93 665.6 514.14C666.03 509.97 670.24 509.38 673.92 510.03C677.027 510.72 679.858 512.322 682.05 514.63C683.54 516.05 684.5 516.87 686.38 514.71C689.92 510.62 692.38 510.71 696.51 514.21C699.91 517.05 701.97 520.86 704.3 524.49C701.81 526.55 698.67 526.38 695.78 526.72C691.47 527.24 687.25 528.12 683.02 528.98C679.627 529.66 676.286 530.575 673.02 531.72C681.45 529.33 689.85 526.72 698.78 527.16C700.77 527.23 702.86 526.85 704.47 528.47Z" fill="#21E676"/>
<path d="M618.86 273.81C612.72 273.81 606.58 273.81 600.45 273.81C599.14 273.81 597.82 273.93 596.61 273.1C594.61 271.74 592.51 270.44 593.54 267.58C593.708 267.01 593.999 266.484 594.391 266.038C594.783 265.592 595.268 265.237 595.811 264.997C596.355 264.757 596.944 264.638 597.537 264.649C598.131 264.66 598.716 264.8 599.25 265.06C603.12 266.62 603.91 265 604.6 261.56C605.52 256.92 608.53 253.78 613.6 253.78C616.6 253.78 617.6 252.42 618.1 249.78C618.396 247.65 619.02 245.579 619.95 243.64C622.21 239.32 625.95 236.94 630.86 237.19C633.209 237.403 635.414 238.411 637.113 240.048C638.811 241.684 639.9 243.851 640.2 246.19C640.83 250.19 641.28 252.68 646.48 251.03C650.12 249.87 653.27 253.35 653.48 258.12C653.62 262 652.97 265.73 658.75 266.29C660.88 266.5 661.61 269.29 659.97 271.55C658.33 273.81 656.19 273.97 653.76 274C647.96 274.06 642.15 274.29 636.35 274.35C630.55 274.41 624.72 274.35 618.91 274.35L618.86 273.81Z" fill="#F9F9FB"/>
<path d="M505.72 413.63C495.25 413.63 484.79 413.57 474.32 413.63C471.09 413.63 468.53 412.82 468.32 409.29C468.12 406.29 469.54 404.16 473.11 404.53C475.36 404.76 475.76 402.76 476.45 401.41C478.89 396.71 482.05 394.03 487.63 396.5C489.48 397.32 490.55 396.43 491.58 394.71C495.58 387.98 499.95 387.27 505.45 392.39C506.88 393.71 508.13 394.48 509.68 392.98C511.23 391.48 512.47 391.59 513.9 393.07C515.33 394.55 516.04 393.47 516.82 392.18C519.03 388.53 522.06 386.71 526.44 388.18C530.82 389.65 532.32 393.18 532.55 397.47C532.9 404.16 533.06 404.29 539.76 404.56C542.56 404.67 545.31 405.06 545.55 408.61C545.77 411.94 542.94 412.53 540.55 413.17C538.925 413.496 537.265 413.617 535.61 413.53C525.65 413.65 515.68 413.63 505.72 413.63Z" fill="#F9F9FB"/>
<path d="M653.48 382.32C646.75 382.89 644.28 380.92 643.56 374.4C640.56 347.01 657.19 327.82 684.91 326.7C700 326.08 713.15 329.95 722.67 342.51C725.4 346.11 726.87 350.38 728.36 354.6C728.97 356.32 729.45 358.16 727.44 359.46C725.91 358.52 725.36 356.9 724.68 355.4C716.29 336.74 689.8 327.7 671.34 334.03C665.15 336.15 660.08 339.97 657.04 345.8C652.212 354.774 649.697 364.81 649.72 375C649.72 377 649.85 379 651.72 380.32C652.173 380.493 652.603 380.722 653 381C653.199 381.15 653.35 381.355 653.435 381.589C653.521 381.823 653.536 382.077 653.48 382.32Z" fill="#ED94AB"/>
<path d="M652.46 381.27C650.05 382.13 649.15 380.72 648.59 378.74C645.29 367 654.74 342.01 665.07 335.63C674.4 329.87 684.64 329.5 694.9 331.94C709.49 335.4 721.16 342.94 727.05 357.51C727.247 358.145 727.378 358.798 727.44 359.46L725.51 360.9C722.42 361.28 721.23 358.78 719.66 356.96C714.9 351.45 710.66 345.56 704.28 341.51C690.28 332.6 664.81 335.16 657.82 357.66C655.999 363.864 654.662 370.2 653.82 376.61C653.6 378.22 653.82 380 652.46 381.27Z" fill="#F3A030"/>
<path d="M652.46 381.27C652.495 371.971 654.29 362.762 657.75 354.13C665.56 334.98 688.28 331.23 703.54 339.51C710.63 343.36 715.32 349.63 720.24 355.66C721.725 357.657 723.502 359.42 725.51 360.89C724.967 361.736 724.23 362.441 723.361 362.945C722.491 363.449 721.514 363.739 720.51 363.79C717.03 362.9 715.34 359.79 712.94 357.59C708.31 353.33 704.26 348.49 698.66 345.27C684.23 336.98 671.66 344.04 665.23 356.01C661.73 362.55 660.64 369.85 659.7 377.11C659.21 380.95 657.62 382.97 653.47 381.66L652.46 381.27Z" fill="#F1E45D"/>
<path d="M589.58 309.86C589.36 310.91 589.05 311.63 587.58 311.41C578.66 310.03 567.77 299.28 566.03 290.04C564.6 282.45 570.03 277.4 577.51 279.42C585.23 281.51 592.05 290.12 593.15 299.42C593.31 301.897 593.33 304.381 593.21 306.86C590.14 308.09 589.06 305.4 587.75 303.78C585.47 300.95 583.23 298.11 581.75 296.51C583.8 298.51 586.21 302.12 588.97 305.42C590.12 306.74 590.88 308.18 589.58 309.86Z" fill="#21E676"/>
<path d="M658.93 321.59C658.142 321.242 657.449 320.709 656.91 320.038C656.37 319.366 656 318.575 655.83 317.73C654.67 314.28 653.59 311.33 648.89 313.47C646.72 314.47 645.89 312.29 645.61 310.73C644.61 305.73 642.86 303.06 637.31 306.18C634.71 307.63 632.39 305.72 630.88 303.71C628.7 300.8 626.88 297.58 624.96 294.52C623.96 293.04 624.83 292.05 625.79 291.03C630.67 285.85 633.43 285.9 637.65 291.56C639.65 294.2 641.44 294.08 643.95 292.37C649.61 288.51 649.65 288.59 651.66 294.92C652.54 297.69 653.39 300.41 657.32 299.8C659.53 299.46 660.18 301.11 660.2 302.96C660.29 309.06 660.36 315.17 658.93 321.59Z" fill="#F3A030"/>
<path d="M697.32 451.55C690.6 453.43 688.5 452.34 686.42 445.5C683.96 437.86 683.96 429.64 686.42 422C687.52 418.61 688.58 414.27 693.34 414.81C695.51 415.04 697.551 415.953 699.169 417.418C700.786 418.883 701.897 420.823 702.34 422.96C704.99 433.22 702.55 442.67 697.28 451.58L697.32 451.55Z" fill="#21E676"/>
<path d="M596.61 349.46C587.61 349.8 578.52 350.1 571.77 342.51C568.71 339.07 565.23 335.45 567.77 330.25C569.48 326.66 575.35 325.59 581.33 327.58C590.06 330.48 597.62 334.95 601.74 343.71C604.32 347.71 603.83 348.92 599.59 349.19C598.589 349.119 597.582 349.21 596.61 349.46V349.46Z" fill="#21E676"/>
<path d="M718.38 425.77C712.38 419.15 715.78 398.77 723.55 394.5C729.7 391.12 737.37 395.81 738.33 403.37C739.5 412.55 734.12 418.22 727.85 423.45C726.653 424.33 725.4 425.131 724.1 425.85C720.31 421.85 725.26 419.75 725.37 416.85C724.06 418.45 723.54 421.04 722.26 423.17C721.36 424.62 720.89 426.68 718.38 425.77Z" fill="#21E676"/>
<path d="M591.51 398.7C585.85 394.7 579.51 391.5 575.72 385.33C573.28 381.33 571.2 377.33 572.3 372.33C573.83 365.33 579.1 362.96 585.24 366.9C590.88 370.51 593.36 376.31 595.35 382.35C595.82 383.76 596.09 385.24 596.45 386.68C598.56 392.11 596.05 398.21 591.51 398.7Z" fill="#21E676"/>
<path d="M606.17 333.83C609.087 327.668 613.393 322.267 618.75 318.05C624.37 313.48 630.5 313.52 634.95 317.71C636.1 318.669 636.904 319.978 637.238 321.438C637.573 322.897 637.419 324.426 636.8 325.79C635.185 330.014 632.03 333.469 627.97 335.46C621.2 339.1 613.88 339.98 606.34 339.77C602.69 338.81 602.66 337.52 606.17 333.83Z" fill="#21E676"/>
<path d="M653.45 381.66C657.1 381.66 658.45 379.97 658.79 376.17C659.71 365.47 661.79 355.09 670.16 347.17C678.16 339.68 687.87 338.17 697.62 343.25C706.98 348.12 713.62 356.1 720.49 363.75C720.06 366.11 718.07 366.67 716.26 367.43C711.2 365.22 708.26 360.56 704.41 357C701.483 354.092 698.106 351.674 694.41 349.84C684.12 345.17 673.6 351.14 669.55 359.18C667.11 364.02 666.16 369.18 665.61 374.48C665.32 377.21 665.38 380.23 662.28 381.72C659.39 382.31 656.52 383.28 653.53 382.28C653.486 382.076 653.459 381.869 653.45 381.66Z" fill="#4EA9A3"/>
<path d="M703.33 448.43L704.22 447.64C706.7 446.09 708.87 443.64 712.3 444.64C717.42 444.4 722.43 443.05 727.63 443.47C733.82 443.98 738.28 446.61 739.04 450.58C739.8 454.55 736.36 459.25 730.84 461.83C728.371 463.068 725.609 463.603 722.856 463.377C720.103 463.151 717.465 462.173 715.23 460.55C711.31 457.8 707.23 455.28 703.32 452.55C702 451.18 702.35 449.8 703.33 448.43Z" fill="#21E676"/>
<path d="M661.28 466.93C658.15 465.98 656.8 463.49 656.5 460.59C655.62 452.31 656.99 444.38 661.5 437.3C663.67 433.93 666.33 430.65 671.21 432.74C675.11 434.41 677.38 439.37 676.69 443.79C675.17 453.5 669.69 460.79 662.47 466.89C662.295 467.008 662.091 467.074 661.881 467.081C661.67 467.088 661.462 467.036 661.28 466.93V466.93Z" fill="#21E676"/>
<path d="M662.23 381.76C664.92 377.29 664.16 372.08 665.33 367.28C667.66 357.68 672.06 350.06 682.56 347.49C690.16 345.62 696.41 348.42 701.82 353.05C706.97 357.47 711.47 362.64 716.25 367.47C712.8 370.26 710.36 369.24 708.16 365.68C707.16 364.06 705.39 362.85 703.85 361.62C689.02 349.7 672.95 355.62 669.41 374.28C669.16 375.58 668.95 376.9 668.83 378.21C668.41 382.74 666.26 384 662.23 381.76Z" fill="#ACDAF0"/>
<path d="M587.5 422.82C593.89 418.17 599.15 411.94 606.72 408.91C612.72 406.49 617.94 408 619.9 412.71C622.11 418.02 619.95 422.71 613.78 425.49C606.14 428.98 598.01 428.9 589.87 428.42C588.09 428.32 587 426.92 586.17 425.42C585.82 424.15 586.05 423.17 587.5 422.82Z" fill="#21E676"/>
<path d="M587.5 422.82L586.17 425.42C582.66 422.42 584.23 418.83 585.07 415.42C586.51 409.6 589.35 404.3 591.51 398.74C596.24 396 595.74 391.1 596.45 386.74C600.59 376.85 601.57 366.39 602.71 355.85C603.33 350.15 601.32 349.06 596.61 349.54C599.19 348.39 604.61 349.79 601.69 343.78C602.57 336.78 600.9 330.08 598.29 323.71C596.209 318.646 593.262 313.983 589.58 309.93C589.35 305.71 585.58 303.73 583.68 300.54C582.78 299 581.68 297.54 579.77 294.92C584.4 296.92 586.11 299.98 588.25 302.52C589.72 304.26 590.66 306.52 593.25 306.91C596.25 313.8 601.32 319.62 603.52 326.99C604.21 329.28 603.11 332.47 606.16 333.89C606.38 335.89 602.05 337.98 606.33 339.84C607.105 353.839 605.815 367.877 602.5 381.5C602.567 383.72 601.86 385.894 600.5 387.65C597.2 398.09 590.67 407.22 588.18 418C587.738 419.569 587.509 421.19 587.5 422.82V422.82Z" fill="#526EB2"/>
<path d="M560.12 453.38C553.12 453.94 546.76 452.73 540.35 452.49C536.93 452.35 537.29 449.64 537.54 447.28C538.32 439.7 538.38 439.52 531.54 437.7C527.54 436.64 526.34 434.81 527.85 430.9C530.42 424.27 531.91 423.06 536.41 425.16C540.91 427.26 544.98 429.51 549.19 431.83C551.62 433.17 552.37 435.26 550.73 437.67C547.95 441.79 549.92 444.48 553.27 446.82C555.7 448.51 558.4 449.91 560.12 453.38Z" fill="#F3A030"/>
<path d="M652.34 474.31C658.326 476.776 663.56 480.768 667.52 485.89C668.818 487.704 669.429 489.92 669.246 492.143C669.063 494.366 668.097 496.452 666.52 498.03C663.12 501.59 659.62 500.42 656.3 498.03C652.339 495.309 648.969 491.816 646.392 487.761C643.814 483.705 642.082 479.171 641.3 474.43C640.55 472.7 641.52 471.78 643 471.71C646.35 471.6 650.07 470.42 652.34 474.31Z" fill="#21E676"/>
<path d="M600.48 387.58C600.4 385.28 600.7 383.11 602.48 381.43C606.28 378.52 610.04 375.55 613.91 372.74C618.34 369.53 623.48 369.09 628.66 369.74C633.84 370.39 635.76 375.12 632.95 379.39C631.234 382.147 628.856 384.432 626.032 386.035C623.207 387.638 620.027 388.51 616.78 388.57C611.327 388.874 605.856 388.542 600.48 387.58V387.58Z" fill="#21E676"/>
<path d="M686.27 463.56C692.079 464.058 697.688 465.922 702.64 469C707.24 471.89 707.91 476.17 707.19 480.72C706.58 484.56 703.13 484.9 700.09 484.2C689.58 481.77 680.55 476.89 674.36 467.65C677.21 463.13 681.39 461.69 686.27 463.56Z" fill="#21E676"/>
<path d="M686.27 463.56C681.93 463.412 677.689 464.872 674.36 467.66C668.13 469.9 661.84 471.92 655.21 472.61C654.629 472.637 654.063 472.805 653.563 473.102C653.062 473.398 652.643 473.813 652.34 474.31C649.648 472.974 646.662 472.341 643.66 472.47C642.26 472.57 641.49 473.09 641.31 474.47C633.52 474.26 625.81 474.82 618.31 477.17C617.15 477.53 615.83 477.89 615.31 476.57C614.61 474.88 616.18 474.16 617.31 473.77C622.919 471.79 628.813 470.737 634.76 470.65C642.509 470.7 650.245 470.031 657.87 468.65C659.23 468.4 660.47 468.19 661.28 466.97H662.51C675.26 464.46 687.38 460.52 697.32 451.63H697.27C699.88 451.71 700.83 448.63 703.33 448.48C703.33 449.85 703.33 451.23 703.33 452.61C698.13 457 692 460 686.27 463.56Z" fill="#526EB1"/>
<path d="M704.47 528.47C693.523 527.751 682.551 529.458 672.34 533.47C671.15 533.91 669.68 535.03 668.94 533.23C668.2 531.43 670.15 531.06 671.24 530.75C682.06 527.64 693.01 525.1 704.3 524.44C718.55 524.16 732.8 523.91 746.78 527.44C747.78 527.69 748.71 527.9 749.64 528.22C750.053 528.306 750.421 528.536 750.678 528.87C750.935 529.204 751.063 529.619 751.04 530.04C750.9 531.32 749.79 531.58 748.8 531.42C745.38 530.85 742 529.94 738.56 529.53C727.24 528.27 715.91 526.34 704.47 528.47Z" fill="#516FB1"/>
<path d="M528.61 305.56C542 312.47 550 323.85 555.4 337.41C556.02 338.95 555.95 340.8 558.34 340.54C562.737 348.679 566.234 357.273 568.77 366.17C569.3 367.9 570.41 370.22 568.22 370.93C565.7 371.75 565.94 368.93 565.43 367.39C562.29 357.83 559.09 348.31 553.55 339.79C548.96 326 540.05 315.53 528.45 307.13C528.354 307.018 528.282 306.887 528.238 306.747C528.194 306.606 528.179 306.458 528.194 306.311C528.209 306.164 528.253 306.022 528.325 305.893C528.396 305.764 528.493 305.65 528.61 305.56Z" fill="#516FB0"/>
<path d="M712.3 444.68L704.22 447.68C708.96 442.68 713.34 437.47 716.42 431.27C717.29 429.53 718.42 427.88 718.42 425.8C721.31 425 721.33 422.11 722.54 420.09C723.54 418.47 723.54 416.25 725.81 415.09C726.92 417.5 725.37 419.17 724.65 420.99C724.03 422.58 722.41 424.05 724.14 425.89L712.3 444.68Z" fill="#516FB0"/>
<path d="M625.45 528.61C623.309 533.129 620.275 537.167 616.53 540.48L624.33 526.48C624.335 526.898 624.44 527.309 624.634 527.679C624.829 528.05 625.108 528.369 625.45 528.61V528.61Z" fill="#915273"/>
<path d="M671.37 770.42L677 770C681.84 771.8 686.74 773.61 690.6 777.1C697.6 783.45 697.03 792.01 689.19 797.2C679.74 803.47 668.86 805.87 657.98 808.15C643.98 811.07 629.81 811.74 615.7 813.35C581.782 817.301 547.627 818.855 513.49 818C502.61 817.7 491.76 816.14 480.92 815C470.25 813.84 459.56 812.79 448.97 811.1C424.97 807.26 400.86 804.28 377.53 797.05C367.25 793.86 356.62 791.71 347.53 785.45C341.23 781.1 341.47 775.6 348.53 772.38C354.28 769.75 360.05 766.46 366.86 768.21C367.36 772.51 369.7 773.85 373.97 773.42C383.15 772.51 392.37 772.01 401.57 771.34C402.9 772.34 404.91 770.87 406.05 772.57C406.69 782.35 409.99 785.24 420.05 785.8C431.28 786.43 442.18 784 453.21 782.8C461.01 783.72 468.31 786.64 475.94 788.32C495.266 792.461 514.966 794.609 534.73 794.73C552.67 794.98 570.59 794.33 588.49 793.49C596.25 793.12 604.09 793.09 611.81 791.86C613.25 791.78 614.7 791.69 616.15 791.75C628.67 792.23 641.08 791.75 653.04 787.37C655.54 786.45 657.91 785.22 660.37 784.23C666.65 781.67 669.37 776.36 671.37 770.42Z" fill="#2FA760"/>
<path d="M612.56 793.12C605.26 794.96 597.72 794.45 590.33 794.87C567.83 796.16 545.27 796.87 522.73 795.99C500.898 795.212 479.258 791.612 458.35 785.28C456.46 784.7 454.49 784.4 452.55 783.97C437.62 780.71 424.17 774.04 411.34 765.97C401.79 759.18 393.15 751.58 387.56 740.97C384.92 735.97 384.46 730.59 383.75 725.21C384.04 720.58 384.91 709.81 385.48 709.21C389.97 699.49 398.48 696.62 408.22 695.9C410.36 695.74 412.5 695.48 414.64 695.26C418.939 694.111 423.499 694.439 427.59 696.19C433.66 698.31 440.06 698.91 446.28 700.33C447.39 700.58 448.48 700.97 449.57 701.33C450.97 702.15 452.73 701.9 454.09 702.84C455.85 702.52 457.28 703.69 458.93 703.9C462.65 705.3 466.55 706.15 470.24 707.65C487.48 713.24 503.99 720.56 520.49 728C547.38 740.12 575.6 748.26 604.21 755.17C607.44 755.95 611.35 755.7 613.41 759.31C614.62 769.54 613.9 779.78 613.83 790.01C613.798 791.166 613.346 792.272 612.56 793.12V793.12Z" fill="#526FB2"/>
<path d="M643.44 699.13C646.57 699.6 649.72 699.93 652.8 700.57C679.11 705.99 689.21 733.84 672.8 755.48C670.56 758.48 667.53 760.48 665.1 763.21C664.319 763.514 663.455 763.536 662.66 763.27C650 759.17 636.8 758.36 623.74 757.99C609.39 757.59 596.03 753.27 582.45 749.81C567.069 745.742 551.929 740.814 537.1 735.05C535.02 734.26 532.04 734.25 531.4 731.15C545.4 728.35 559.21 725.2 572.54 720.09C577.93 718.02 583.54 716.38 588.54 713.39C591.25 712.2 593.61 713.99 596.15 714.32C601.67 715.05 607.15 715.77 612.55 713.66C617.813 711.727 622.279 708.091 625.24 703.33C626.33 701.71 627.33 699.97 629.34 699.26C634 698.26 638.72 696.61 643.44 699.13Z" fill="#526FB2"/>
<path d="M531.42 731.15C544.42 737.55 558.29 741.46 571.99 745.78C584.44 749.71 596.99 753.46 609.99 755.45C618.12 756.71 626.46 756.57 634.69 757.27C645.05 758.15 655.51 758.63 665.15 763.21C667.767 765.093 669.908 767.562 671.4 770.42C672.33 777.81 667.82 781.73 662.13 784.83C647.73 792.67 632.13 793.83 616.13 793.11C616.55 790.8 618.67 790.77 620.26 790.11C623.75 788.62 627.42 787.52 630.54 785.24C636.99 780.52 637.63 774.1 632.11 768.3C628.34 764.3 623.39 762.42 618.31 760.8C616.31 760.16 614.08 759.9 612.42 758.35C577 750.2 542.2 740.1 509.29 724.26C496.481 717.986 483.252 712.607 469.7 708.16C469.49 707.23 469.7 706.72 470.76 707.16C479.71 709.23 487.98 713.28 496.66 716.16C500.24 715.48 503.05 717.62 505.94 719C513.81 722.74 522.07 725.68 529.44 730.43L531.42 731.15Z" fill="#4E356F"/>
<path d="M529.44 730.36C520.1 727.78 511.97 722.36 502.99 718.95C500.83 718.12 498.77 717.05 496.66 716.09C501.99 710.6 507.66 705.39 512.55 699.55C516.07 695.35 517.91 697.55 519.94 700.45C526.21 709.42 529 719.52 529.44 730.36Z" fill="#C08081"/>
<path d="M613.45 714.34C608.31 718 602.57 716.2 597.1 715.86C594.2 715.69 591.39 714.25 588.54 713.39C574.08 705.91 568.39 692.95 566.54 677.75C563.98 657.08 567.94 636.83 571.02 616.56C573.28 601.66 576.86 587.02 580.41 572.38C579.7 565.92 582.72 560.28 584.34 554.38C584.61 553.948 584.976 553.586 585.41 553.32C586.24 553.32 586.91 553.44 586.52 554.55L584.66 564.64C585.45 566.84 584.6 568.91 584.08 570.97C577.68 596.45 572.46 622.17 570.34 648.37C569.34 660.54 568.59 672.94 571.93 685.01C574.93 695.84 580.59 704.7 590.93 710.01C595.5 712.34 600.35 713.01 605.41 713.01C608.11 712.9 611.08 712.11 613.45 714.34Z" fill="#8C4C74"/>
<path d="M467.57 657.36C461.48 655.26 461.45 655.25 463.57 649.28C470.063 630.613 476.567 611.967 483.08 593.34C483.854 590.829 485.271 588.565 487.19 586.77C487.71 590.48 486.44 593.38 485.45 596.24C479.26 614.11 472.94 631.94 466.71 649.8C465.81 652.39 464.07 655.34 468.54 656.54C468.67 657.35 468.61 657.91 467.57 657.36Z" fill="#8C4C74"/>
<path d="M427.59 696.18C423.251 696.512 418.887 696.199 414.64 695.25C411.287 684.247 409.965 672.726 410.74 661.25C413.11 669.43 414.94 677.79 419.27 685.25C421.59 689.24 424.69 692.63 427.59 696.18Z" fill="#C2E3F7"/>
<path d="M585.31 553.66C583.67 559.9 582.023 566.14 580.37 572.38C579.76 571.38 578.74 570.54 578.6 569.53C577.25 559.72 571.02 555.44 561.81 554.4C562.1 553.1 562.38 551.81 562.67 550.52C570.48 549.68 578.07 550.41 585.31 553.66Z" fill="#31A761"/>
<path d="M467.57 657.36L468.5 656.53C480.9 661.69 491.66 669.34 501.5 678.36C501.74 679.23 501.59 679.71 500.55 679.3C490.59 670.46 479.23 663.69 467.57 657.36Z" fill="#914E83"/>
<path d="M470.76 707.12L469.7 708.12L458.61 704.25C458.27 704.04 458.15 703.83 458.26 703.61C458.37 703.39 458.48 703.29 458.6 703.29C462.75 704.26 466.94 705.1 470.76 707.12Z" fill="#5D448A"/>
<path d="M500.58 679.3C500.89 678.98 501.21 678.67 501.53 678.36C504.651 680.507 507.168 683.42 508.84 686.82L500.58 679.3Z" fill="#99509A"/>
<path d="M458.6 703.33C458.6 703.65 458.6 703.97 458.6 704.33L453.6 703.24C453.3 703.027 453.2 702.817 453.3 702.61C453.4 702.39 453.5 702.29 453.6 702.29C455.333 702.131 457.074 702.493 458.6 703.33V703.33Z" fill="#56498B"/>
<path d="M453.62 702.25V703.25C452.36 702.42 450.62 702.68 449.57 701.33C451 701.37 452.51 700.93 453.62 702.25Z" fill="#5D4B92"/>
<path d="M613.45 714.34C608.15 714.21 602.76 715.12 597.55 713.81C580.55 709.54 572.63 697.13 569.55 681.08C566.89 667.08 567.99 652.92 569.65 638.92C572.551 614.923 577.142 591.16 583.39 567.81C583.732 566.716 584.133 565.641 584.59 564.59C587.59 563.9 590.66 563.03 593.74 562.59C601.28 561.43 607.13 564.93 612.46 569.72C614.46 570.32 615.08 572.13 615.76 573.8C625.58 597.92 631.26 623.09 634.76 648.8C637.07 662.87 635.26 676.74 632.66 690.55C632 694.07 631.34 697.75 628.35 700.31C625 706.6 620.91 712.28 613.45 714.34Z" fill="#7694FF"/>
<path d="M633.59 648.27C629.24 621.35 623.73 594.74 612.49 569.67C613.537 566.623 614.593 563.57 615.66 560.51C621.66 564.85 624 571.57 626.33 578.04C633.7 598.45 637.83 619.69 641.33 641.04C641.78 643.8 643.85 646.72 641.19 649.47C638.35 651.21 635.91 650.13 633.59 648.27Z" fill="#2FA760"/>
<path d="M585.31 553.66L562.67 550.52C563.58 546.23 566.17 545.44 570.04 546.77C575.208 548.536 580.7 549.147 586.13 548.56C588.13 550.49 586.41 551.91 585.48 553.44L585.31 553.66Z" fill="#FAFAF9"/>
<path d="M599.52 505.82C603.72 506.62 608.42 506.6 609.59 512.18C609.713 512.47 609.898 512.729 610.134 512.938C610.369 513.148 610.648 513.302 610.95 513.39C612.22 513.76 614.1 513.83 612.46 515.68C611.29 517 609.04 518.4 607.86 516.2C605.54 511.87 602.99 508.36 597.52 508.3C597.354 508.277 597.195 508.216 597.057 508.122C596.919 508.027 596.804 507.902 596.723 507.755C596.641 507.608 596.595 507.445 596.587 507.278C596.58 507.11 596.612 506.943 596.68 506.79C597.17 505.23 598.45 505.66 599.52 505.82Z" fill="#8E4E72"/>
<path d="M577.45 494.34C575.45 494.62 575.24 492.99 574.68 491.92C573.14 488.92 570.68 487.75 567.46 487.53C562.54 487.18 562.14 486.35 563.97 481.27C568.17 484.11 574.22 484.27 576.56 489.84C577.17 491.28 578.23 492.65 577.45 494.34Z" fill="#8E4F72"/>
<path d="M532 476.14C537.48 469.94 540.78 469.59 546 473.85C546.13 473.95 546 474.23 545.88 474.18C542.48 473.12 540.98 471.64 539.97 473.4C539.29 474.59 540.11 477.85 540.46 479.96C540.61 480.85 540.57 482.21 539.1 481.96C538.601 481.838 538.169 481.53 537.891 481.098C537.614 480.666 537.513 480.144 537.61 479.64C537.73 477.64 538.24 474.04 536.97 473.64C536.14 473.35 534.43 476.51 532.47 476.7C532.26 476.71 531.89 476.28 532 476.14Z" fill="#905073"/>
<path d="M567.05 506.12C572.05 511.57 577.38 516.29 584.86 517.82C585.027 517.843 585.186 517.905 585.324 518.001C585.462 518.097 585.576 518.224 585.656 518.372C585.736 518.52 585.779 518.685 585.784 518.853C585.788 519.021 585.752 519.188 585.68 519.34C585.04 520.65 583.77 520.63 582.68 520.34C575 518.33 569.65 513.77 567.05 506.12Z" fill="#8F5073"/>
<path d="M588.69 496.09C588.38 501.57 582.48 500.64 580.31 504.09C580.03 504.53 578.89 503.46 578.68 502.67C578.28 501.13 579.13 500.15 580.46 499.56C583.15 498.34 586.27 498.24 588.69 496.09Z" fill="#915173"/>
<path d="M612.69 525.68C612.118 525.62 611.541 525.696 611.004 525.901C610.467 526.106 609.986 526.435 609.6 526.86C608.81 527.66 608.15 528.58 607.42 529.45C604.62 531.45 602.52 534.21 600.19 536.75C596.05 541.27 592.72 546.9 586.13 548.56C586.83 550.31 585.55 551.8 585.48 553.44L586.48 554.5C588.01 553.5 587 551.3 588.76 550.29C596.98 545.61 601.29 537.18 607.45 530.53C609.6 529.92 610.51 525.92 612.78 527.34C614.56 528.44 611.85 530.69 611.49 532.52C610.91 534.25 610.32 535.97 609.55 538.23C611.791 536.926 613.53 534.908 614.49 532.5V532.5C617.12 527.37 613.57 526 612.69 525.68Z" fill="#935474"/>
<path d="M633.59 648.27L641.23 649.47L643.38 650.38C643.38 666.63 645.61 682.88 643.44 699.13L628.44 700.28C634 683.33 635.4 666 633.59 648.27Z" fill="#C2E4F7"/>
<path d="M383.75 725.17C386.47 743.17 398.04 755 411.82 765.27C410.97 768.77 409.1 771.35 405.43 772.27L401.55 771.33L405.09 770.91C388 760 382.83 744 383.75 725.17Z" fill="#C2E4F7"/>
<path d="M528.61 305.56C528.56 306.08 528.5 306.56 528.45 307.13L523.67 304.25C526.11 303.47 527.32 304.65 528.61 305.56Z" fill="#4A5D77"/>
<path d="M612.41 758.33C619.8 759.33 626.75 761.55 632.3 766.68C639.56 773.39 638.74 781.05 630.62 786.68C626.17 789.76 620.83 790.68 616.12 793.13H612.56L612.41 758.33Z" fill="#C08081"/>
<path d="M405.43 772.29L411.82 765.29C424.68 773.08 438.64 778.49 452.55 783.99C441.48 786.18 430.36 787.9 419 787.32C415.842 787.187 412.749 786.379 409.93 784.95C404.88 782.34 403.75 779.05 405.43 772.29Z" fill="#4E356F"/>
</svg>
